<svg xmlns="http://www.w3.org/2000/svg" width="192" height="48" viewBox="0 0 1024 256">
    <defs>
        <g id="arrowFatDownFillIconShape">
            <path d="M229.66,141.66l-96,96a8,8,0,0,1-11.32,0l-96-96A8,8,0,0,1,32,128H72V48A16,16,0,0,1,88,32h80a16,16,0,0,1,16,16v80h40a8,8,0,0,1,5.66,13.66Z"></path>
        </g>
    </defs>

    <use href="#arrowFatDownFillIconShape" fill="#d8e0eb" x="0" y="0" />

    <use href="#arrowFatDownFillIconShape" fill="#009dff" x="256" y="0" />
    <!--
        Alternatively, using transform:
        <use href="#folderIconShape" fill="#007bff" transform="translate(256, 0)" />
    -->

    <use href="#arrowFatDownFillIconShape" fill="#1cc766" x="512" y="0" />
    <!--
        Alternatively, using transform:
        <use href="#folderIconShape" fill="#28a745" transform="translate(512, 0)" />
    -->

    <use href="#arrowFatDownFillIconShape" fill="#dc3545" x="768" y="0" />
    <!--
        Alternatively, using transform:
        <use href="#folderIconShape" fill="#dc3545" transform="translate(768, 0)" />
    -->
</svg>