<svg xmlns="http://www.w3.org/2000/svg" width="192" height="48" viewBox="0 0 1024 256">
    <defs>
        <g id="pauseFillIconShape">
            <path d="M216,48V208a16,16,0,0,1-16,16H160a16,16,0,0,1-16-16V48a16,16,0,0,1,16-16h40A16,16,0,0,1,216,48ZM96,32H56A16,16,0,0,0,40,48V208a16,16,0,0,0,16,16H96a16,16,0,0,0,16-16V48A16,16,0,0,0,96,32Z"></path>
        </g>
    </defs>

    <use href="#pauseFillIconShape" fill="#d8e0eb" x="0" y="0" />

    <use href="#pauseFillIconShape" fill="#009dff" x="256" y="0" />
    <!--
        Alternatively, using transform:
        <use href="#folderIconShape" fill="#007bff" transform="translate(256, 0)" />
    -->

    <use href="#pauseFillIconShape" fill="#1cc766" x="512" y="0" />
    <!--
        Alternatively, using transform:
        <use href="#folderIconShape" fill="#28a745" transform="translate(512, 0)" />
    -->

    <use href="#pauseFillIconShape" fill="#dc3545" x="768" y="0" />
    <!--
        Alternatively, using transform:
        <use href="#folderIconShape" fill="#dc3545" transform="translate(768, 0)" />
    -->
</svg>