<svg xmlns="http://www.w3.org/2000/svg" width="192" height="48" viewBox="0 0 1024 256">
    <defs>
        <g id="plusSquareFillIconShape">
            <path d="M208,32H48A16,16,0,0,0,32,48V208a16,16,0,0,0,16,16H208a16,16,0,0,0,16-16V48A16,16,0,0,0,208,32ZM168,136H136v32a8,8,0,0,1-16,0V136H88a8,8,0,0,1,0-16h32V88a8,8,0,0,1,16,0v32h32a8,8,0,0,1,0,16Z"></path>
        </g>
    </defs>

    <use href="#plusSquareFillIconShape" fill="#d8e0eb" x="0" y="0" />

    <use href="#plusSquareFillIconShape" fill="#009dff" x="256" y="0" />
    <!--
        Alternatively, using transform:
        <use href="#folderIconShape" fill="#007bff" transform="translate(256, 0)" />
    -->

    <use href="#plusSquareFillIconShape" fill="#1cc766" x="512" y="0" />
    <!--
        Alternatively, using transform:
        <use href="#folderIconShape" fill="#28a745" transform="translate(512, 0)" />
    -->

    <use href="#plusSquareFillIconShape" fill="#dc3545" x="768" y="0" />
    <!--
        Alternatively, using transform:
        <use href="#folderIconShape" fill="#dc3545" transform="translate(768, 0)" />
    -->
</svg>